# xmcd
#
# Track frame offsets: 
#        150
#        16933
#        35757
#        49983
#        65829
#        87517
#        110487
#
# Disc length: 1666 seconds
#
# Revision: 1
# Processed by: cddbd v1.5.2PL0 Copyright (c) Steve Scherf et al.
# Submitted via: ExactAudioCopy v1.0b1
#
DISCID=61068007
DTITLE=Calexico and Iron And Wine - In The Reins
DYEAR=2005
DGENRE=Rock
TTITLE0=He Lays In The Reins
TTITLE1=Prison On Route 41
TTITLE2=A History Of Lovers
TTITLE3=Red Dust
TTITLE4=Sixteen Maybe Less
TTITLE5=Burn That Broken Bed
TTITLE6=Dead Man's Will
EXTD=
EXTT0=
EXTT1=
EXTT2=
EXTT3=
EXTT4=
EXTT5=
EXTT6=
PLAYORDER=
